<svg width="118" height="19" viewBox="0 0 118 19" fill="none" xmlns="http://www.w3.org/2000/svg">
<path d="M0.517045 18V0.545454H7.40341C8.72159 0.545454 9.84659 0.78125 10.7784 1.25284C11.7159 1.71875 12.429 2.38068 12.9176 3.23864C13.4119 4.09091 13.6591 5.09375 13.6591 6.24716C13.6591 7.40625 13.4091 8.40341 12.9091 9.23864C12.4091 10.0682 11.6847 10.7045 10.7358 11.1477C9.79261 11.5909 8.65057 11.8125 7.30966 11.8125H2.69886V8.84659H6.71307C7.41761 8.84659 8.00284 8.75 8.46875 8.55682C8.93466 8.36364 9.28125 8.07386 9.50852 7.6875C9.74148 7.30114 9.85795 6.82102 9.85795 6.24716C9.85795 5.66761 9.74148 5.17898 9.50852 4.78125C9.28125 4.38352 8.93182 4.08239 8.46023 3.87784C7.99432 3.66761 7.40625 3.5625 6.69602 3.5625H4.20739V18H0.517045ZM9.94318 10.0568L14.2812 18H10.2074L5.96307 10.0568H9.94318ZM21.9538 18.2557C20.6072 18.2557 19.4482 17.983 18.4766 17.4375C17.5107 16.8864 16.7663 16.108 16.2436 15.1023C15.7209 14.0909 15.4595 12.8949 15.4595 11.5142C15.4595 10.1676 15.7209 8.9858 16.2436 7.96875C16.7663 6.9517 17.5021 6.15909 18.451 5.59091C19.4055 5.02273 20.5249 4.73864 21.8089 4.73864C22.6726 4.73864 23.4766 4.87784 24.2209 5.15625C24.9709 5.42898 25.6243 5.84091 26.1811 6.39205C26.7436 6.94318 27.1811 7.63636 27.4936 8.47159C27.8061 9.30114 27.9624 10.2727 27.9624 11.3864V12.3835H16.9084V10.1335H24.5447C24.5447 9.6108 24.4311 9.14773 24.2038 8.74432C23.9766 8.34091 23.6612 8.02557 23.2578 7.7983C22.8601 7.56534 22.397 7.44886 21.8686 7.44886C21.3175 7.44886 20.8288 7.5767 20.4027 7.83239C19.9822 8.08239 19.6527 8.42045 19.4141 8.84659C19.1754 9.26705 19.0533 9.7358 19.0476 10.2528V12.392C19.0476 13.0398 19.1669 13.5994 19.4055 14.071C19.6499 14.5426 19.9936 14.9062 20.4368 15.1619C20.88 15.4176 21.4055 15.5455 22.0135 15.5455C22.4169 15.5455 22.7862 15.4886 23.1214 15.375C23.4567 15.2614 23.7436 15.0909 23.9822 14.8636C24.2209 14.6364 24.4027 14.358 24.5277 14.0284L27.8857 14.25C27.7152 15.0568 27.3658 15.7614 26.8374 16.3636C26.3146 16.9602 25.6385 17.4261 24.8089 17.7614C23.9851 18.0909 23.0334 18.2557 21.9538 18.2557ZM34.0646 18.2472C33.2294 18.2472 32.4851 18.1023 31.8317 17.8125C31.1783 17.517 30.6612 17.0824 30.2805 16.5085C29.9055 15.929 29.718 15.2074 29.718 14.3438C29.718 13.6165 29.8516 13.0057 30.1186 12.5114C30.3857 12.017 30.7493 11.6193 31.2095 11.3182C31.6697 11.017 32.1925 10.7898 32.7777 10.6364C33.3686 10.483 33.9879 10.375 34.6357 10.3125C35.397 10.233 36.0107 10.1591 36.4766 10.0909C36.9425 10.017 37.2805 9.90909 37.4908 9.76705C37.701 9.625 37.8061 9.41477 37.8061 9.13636V9.08523C37.8061 8.54545 37.6357 8.12784 37.2947 7.83239C36.9595 7.53693 36.4822 7.3892 35.8629 7.3892C35.2095 7.3892 34.6896 7.53409 34.3033 7.82386C33.9169 8.10795 33.6612 8.46591 33.5362 8.89773L30.1783 8.625C30.3487 7.82955 30.6839 7.14205 31.1839 6.5625C31.6839 5.97727 32.3288 5.52841 33.1186 5.21591C33.9141 4.89773 34.8345 4.73864 35.88 4.73864C36.6072 4.73864 37.3033 4.82386 37.968 4.99432C38.6385 5.16477 39.2322 5.42898 39.7493 5.78693C40.272 6.14489 40.6839 6.60511 40.9851 7.16761C41.2862 7.72443 41.4368 8.39205 41.4368 9.17045V18H37.9936V16.1847H37.8913C37.6811 16.5938 37.3999 16.9545 37.0476 17.267C36.6953 17.5739 36.272 17.8153 35.7777 17.9915C35.2834 18.1619 34.7124 18.2472 34.0646 18.2472ZM35.1044 15.7415C35.6385 15.7415 36.1101 15.6364 36.5192 15.4261C36.9283 15.2102 37.2493 14.9205 37.4822 14.5568C37.7152 14.1932 37.8317 13.7812 37.8317 13.321V11.9318C37.718 12.0057 37.5618 12.0739 37.3629 12.1364C37.1697 12.1932 36.951 12.2472 36.7067 12.2983C36.4624 12.3437 36.218 12.3864 35.9737 12.4261C35.7294 12.4602 35.5078 12.4915 35.3089 12.5199C34.8828 12.5824 34.5107 12.6818 34.1925 12.8182C33.8743 12.9545 33.6271 13.1392 33.451 13.3722C33.2749 13.5994 33.1868 13.8835 33.1868 14.2244C33.1868 14.7188 33.3658 15.0966 33.7237 15.358C34.0874 15.6136 34.5476 15.7415 35.1044 15.7415ZM49.0774 18.2131C48.0831 18.2131 47.1825 17.9574 46.3757 17.446C45.5746 16.929 44.9382 16.1705 44.4666 15.1705C44.0007 14.1648 43.7678 12.9318 43.7678 11.4716C43.7678 9.97159 44.0092 8.72443 44.4922 7.73011C44.9751 6.73011 45.6172 5.98295 46.4183 5.48864C47.2251 4.98864 48.1087 4.73864 49.0689 4.73864C49.8018 4.73864 50.4126 4.86364 50.9013 5.11364C51.3956 5.35795 51.7933 5.66477 52.0945 6.03409C52.4013 6.39773 52.6342 6.75568 52.7933 7.10795H52.9041V0.545454H56.5263V18H52.9467V15.9034H52.7933C52.6229 16.267 52.3814 16.6278 52.0689 16.9858C51.7621 17.3381 51.3615 17.6307 50.8672 17.8636C50.3786 18.0966 49.782 18.2131 49.0774 18.2131ZM50.228 15.3239C50.8132 15.3239 51.3075 15.1648 51.7109 14.8466C52.12 14.5227 52.4325 14.071 52.6484 13.4915C52.87 12.9119 52.9808 12.233 52.9808 11.4545C52.9808 10.6761 52.8729 10 52.657 9.42614C52.4411 8.85227 52.1286 8.40909 51.7195 8.09659C51.3104 7.78409 50.8132 7.62784 50.228 7.62784C49.6314 7.62784 49.1286 7.78977 48.7195 8.11364C48.3104 8.4375 48.0007 8.88636 47.7905 9.46023C47.5803 10.0341 47.4751 10.6989 47.4751 11.4545C47.4751 12.2159 47.5803 12.8892 47.7905 13.4744C48.0064 14.054 48.3161 14.5085 48.7195 14.8381C49.1286 15.1619 49.6314 15.3239 50.228 15.3239ZM59.5795 0.545454H64.1307L68.9375 12.2727H69.142L73.9489 0.545454H78.5V18H74.9205V6.6392H74.7756L70.2585 17.9148H67.821L63.304 6.59659H63.1591V18H59.5795V0.545454ZM87.3871 18.2557C86.0632 18.2557 84.9183 17.9744 83.9524 17.4119C82.9922 16.8437 82.2507 16.054 81.728 15.0426C81.2053 14.0256 80.9439 12.8466 80.9439 11.5057C80.9439 10.1534 81.2053 8.97159 81.728 7.96023C82.2507 6.94318 82.9922 6.15341 83.9524 5.59091C84.9183 5.02273 86.0632 4.73864 87.3871 4.73864C88.7109 4.73864 89.853 5.02273 90.8132 5.59091C91.7791 6.15341 92.5234 6.94318 93.0462 7.96023C93.5689 8.97159 93.8303 10.1534 93.8303 11.5057C93.8303 12.8466 93.5689 14.0256 93.0462 15.0426C92.5234 16.054 91.7791 16.8437 90.8132 17.4119C89.853 17.9744 88.7109 18.2557 87.3871 18.2557ZM87.4041 15.4432C88.0064 15.4432 88.5092 15.2727 88.9126 14.9318C89.3161 14.5852 89.62 14.1136 89.8246 13.517C90.0348 12.9205 90.1399 12.2415 90.1399 11.4801C90.1399 10.7188 90.0348 10.0398 89.8246 9.44318C89.62 8.84659 89.3161 8.375 88.9126 8.02841C88.5092 7.68182 88.0064 7.50852 87.4041 7.50852C86.7962 7.50852 86.2848 7.68182 85.87 8.02841C85.4609 8.375 85.1513 8.84659 84.9411 9.44318C84.7365 10.0398 84.6342 10.7188 84.6342 11.4801C84.6342 12.2415 84.7365 12.9205 84.9411 13.517C85.1513 14.1136 85.4609 14.5852 85.87 14.9318C86.2848 15.2727 86.7962 15.4432 87.4041 15.4432ZM96.1911 18V4.90909H99.7109V7.19318H99.8473C100.086 6.38068 100.487 5.76705 101.049 5.35227C101.612 4.93182 102.259 4.72159 102.992 4.72159C103.174 4.72159 103.37 4.73295 103.58 4.75568C103.79 4.77841 103.975 4.80966 104.134 4.84943V8.07102C103.964 8.01989 103.728 7.97443 103.427 7.93466C103.126 7.89489 102.85 7.875 102.6 7.875C102.066 7.875 101.589 7.99148 101.168 8.22443C100.754 8.4517 100.424 8.76989 100.18 9.17898C99.9411 9.58807 99.8217 10.0597 99.8217 10.5938V18H96.1911ZM111.368 18.2557C110.021 18.2557 108.862 17.983 107.891 17.4375C106.925 16.8864 106.18 16.108 105.658 15.1023C105.135 14.0909 104.874 12.8949 104.874 11.5142C104.874 10.1676 105.135 8.9858 105.658 7.96875C106.18 6.9517 106.916 6.15909 107.865 5.59091C108.82 5.02273 109.939 4.73864 111.223 4.73864C112.087 4.73864 112.891 4.87784 113.635 5.15625C114.385 5.42898 115.038 5.84091 115.595 6.39205C116.158 6.94318 116.595 7.63636 116.908 8.47159C117.22 9.30114 117.376 10.2727 117.376 11.3864V12.3835H106.322V10.1335H113.959C113.959 9.6108 113.845 9.14773 113.618 8.74432C113.391 8.34091 113.075 8.02557 112.672 7.7983C112.274 7.56534 111.811 7.44886 111.283 7.44886C110.732 7.44886 110.243 7.5767 109.817 7.83239C109.396 8.08239 109.067 8.42045 108.828 8.84659C108.589 9.26705 108.467 9.7358 108.462 10.2528V12.392C108.462 13.0398 108.581 13.5994 108.82 14.071C109.064 14.5426 109.408 14.9062 109.851 15.1619C110.294 15.4176 110.82 15.5455 111.428 15.5455C111.831 15.5455 112.2 15.4886 112.536 15.375C112.871 15.2614 113.158 15.0909 113.396 14.8636C113.635 14.6364 113.817 14.358 113.942 14.0284L117.3 14.25C117.129 15.0568 116.78 15.7614 116.251 16.3636C115.729 16.9602 115.053 17.4261 114.223 17.7614C113.399 18.0909 112.447 18.2557 111.368 18.2557Z" fill="black"/>
</svg>
